<?xml version="1.0" encoding="utf-8"?>
<!-- Generator: Adobe Illustrator 24.2.3, SVG Export Plug-In . SVG Version: 6.00 Build 0)  -->
<svg version="1.1" id="Capa_1" xmlns="http://www.w3.org/2000/svg" xmlns:xlink="http://www.w3.org/1999/xlink" x="0px" y="0px"
	 viewBox="0 0 30 30" style="enable-background:new 0 0 30 30;" xml:space="preserve">
<path d="M26.43,10.23c-0.17,0.14-3.25,1.87-3.25,5.72c0,4.45,3.91,6.03,4.03,6.07c-0.02,0.1-0.62,2.16-2.06,4.26
	c-1.28,1.85-2.63,3.69-4.67,3.69s-2.57-1.19-4.92-1.19c-2.3,0-3.11,1.22-4.98,1.22s-3.17-1.71-4.67-3.81
	c-1.73-2.47-3.14-6.3-3.14-9.93c0-5.83,3.79-8.93,7.52-8.93c1.98,0,3.64,1.3,4.88,1.3c1.19,0,3.03-1.38,5.29-1.38
	C21.34,7.25,24.41,7.33,26.43,10.23L26.43,10.23z M19.41,4.78c0.93-1.11,1.59-2.64,1.59-4.18c0-0.21-0.02-0.43-0.06-0.6
	c-1.52,0.06-3.32,1.01-4.41,2.27c-0.86,0.97-1.65,2.51-1.65,4.07c0,0.23,0.04,0.47,0.06,0.54c0.1,0.02,0.25,0.04,0.41,0.04
	C16.71,6.92,18.42,6.01,19.41,4.78L19.41,4.78z"/>
</svg>
