<?xml version="1.0" encoding="utf-8"?>
<!-- Generator: Adobe Illustrator 24.2.3, SVG Export Plug-In . SVG Version: 6.00 Build 0)  -->
<svg version="1.1" id="Capa_1" xmlns="http://www.w3.org/2000/svg" xmlns:xlink="http://www.w3.org/1999/xlink" x="0px" y="0px"
	 viewBox="0 0 30 30" style="enable-background:new 0 0 30 30;" xml:space="preserve">
<g>
	<path d="M7.9,30c-0.6-0.4-0.9-0.8-0.6-1.4c0.1-0.2,0.2-0.4,0.4-0.5c4.2-4.2,8.4-8.4,12.7-12.7c0.3-0.3,0.3-0.3,0-0.5
		C16,10.6,11.7,6.3,7.5,2.1C7.4,1.9,7.2,1.8,7.2,1.7c-0.3-0.4-0.3-1,0.1-1.4c0.4-0.4,1-0.4,1.4-0.1c0.1,0.1,0.2,0.2,0.3,0.3
		c4.6,4.6,9.1,9.1,13.7,13.7c0.6,0.6,0.6,1.3,0.1,1.8c-0.2,0.2-0.5,0.5-0.7,0.7c-4.3,4.3-8.6,8.6-12.9,12.9
		c-0.2,0.2-0.4,0.3-0.6,0.5C8.3,30,8.1,30,7.9,30z"/>
</g>
</svg>
