<?xml version="1.0" encoding="utf-8"?>
<!-- Generator: Adobe Illustrator 24.2.3, SVG Export Plug-In . SVG Version: 6.00 Build 0)  -->
<svg version="1.1" id="Capa_1" xmlns="http://www.w3.org/2000/svg" xmlns:xlink="http://www.w3.org/1999/xlink" x="0px" y="0px"
	 viewBox="0 0 30 30" style="enable-background:new 0 0 30 30;" xml:space="preserve">
<path d="M6,30c-1.6,0-2.9-1.3-2.9-2.9V11c0-1.6,1.3-2.9,2.9-2.9h0.9C7.8,3.4,11.1,0,14.8,0c3.7,0,7,3.4,7.9,8.1H24
	c1.6,0,2.9,1.3,2.9,2.9v16.1c0,1.6-1.3,2.9-2.9,2.9H6z M6,10.1c-0.5,0-1,0.4-1,1v16.1c0,0.5,0.4,1,1,1h18c0.5,0,1-0.4,1-1V11
	c0-0.5-0.4-1-1-1h-1.1c0,0.2,0,0.5,0,0.7c0,0.5,0,0.9-0.1,1.4l0,0.5l-1.9-0.2l0-0.5c0-0.4,0.1-0.8,0.1-1.2c0-0.2,0-0.5,0-0.7H8.6
	c0,0.2,0,0.5,0,0.7c0,0.4,0,0.8,0.1,1.2l0,0.5l-1.9,0.2l0-0.5c0-0.4-0.1-0.9-0.1-1.4c0-0.2,0-0.5,0-0.7H6z M20.7,8.2
	c-0.8-3.6-3.2-6.2-5.9-6.2c-2.7,0-5.1,2.6-5.9,6.2H20.7z"/>
</svg>
