<?xml version="1.0" encoding="utf-8"?>
<!-- Generator: Adobe Illustrator 24.2.3, SVG Export Plug-In . SVG Version: 6.00 Build 0)  -->
<svg version="1.1" id="Capa_1" xmlns="http://www.w3.org/2000/svg" xmlns:xlink="http://www.w3.org/1999/xlink" x="0px" y="0px"
	 viewBox="0 0 100 20.73" style="enable-background:new 0 0 100 20.73;" xml:space="preserve">
<g>
	<path d="M5.06,8.68c0,0.42-0.11,0.75-0.33,0.97c-0.22,0.23-0.57,0.4-1.05,0.51c0.48,0.1,0.83,0.26,1.05,0.49
		c0.22,0.23,0.33,0.55,0.33,0.97v6.74c0,0.53-0.1,0.93-0.29,1.22C4.57,19.87,4.32,20.08,4,20.21c-0.32,0.13-0.68,0.21-1.08,0.23
		c-0.4,0.02-0.82,0.03-1.24,0.03H0V0.25h1.69c0.53,0,1,0.01,1.42,0.03c0.42,0.02,0.77,0.1,1.06,0.23c0.29,0.13,0.51,0.34,0.67,0.63
		c0.15,0.29,0.23,0.69,0.23,1.22V8.68z M1.69,9.52h1.26c0.11,0,0.19-0.02,0.24-0.07c0.06-0.05,0.1-0.11,0.13-0.19
		c0.03-0.08,0.04-0.17,0.05-0.27c0-0.1,0.01-0.2,0.01-0.31V2.36c0-0.21-0.03-0.37-0.09-0.49C3.23,1.76,3.13,1.67,3,1.62
		C2.87,1.57,2.7,1.54,2.48,1.53C2.27,1.52,2,1.51,1.69,1.51V9.52z M3.37,11.63c0-0.11,0-0.21-0.01-0.31c0-0.1-0.02-0.19-0.05-0.27
		c-0.03-0.08-0.07-0.14-0.13-0.19c-0.06-0.05-0.14-0.07-0.24-0.07H1.69v8.43c0.19,0,0.39,0,0.59-0.01c0.2-0.01,0.38-0.04,0.55-0.09
		c0.16-0.05,0.29-0.13,0.4-0.24c0.1-0.11,0.15-0.28,0.15-0.5V11.63z"/>
	<path d="M11.12,0.25v18.96h1.69v1.26H9.44V0.25H11.12z"/>
	<path d="M20.99,20.48H19.4l-0.36-4.36h-1.17l-0.24,4.36h-1.69L17.5,0.25h1.8L20.99,20.48z M18.94,14.74L18.46,4.46l-0.5,10.27
		H18.94z"/>
	<path d="M30,8.68h-1.69V2.1c0-0.3-0.07-0.52-0.22-0.64c-0.15-0.13-0.32-0.19-0.51-0.19c-0.11,0-0.23,0.02-0.34,0.06
		c-0.11,0.04-0.21,0.1-0.3,0.17c-0.09,0.07-0.17,0.16-0.22,0.26c-0.06,0.1-0.09,0.21-0.09,0.34v16.52c0,0.12,0.03,0.24,0.09,0.34
		c0.06,0.11,0.13,0.2,0.22,0.27c0.09,0.07,0.19,0.13,0.3,0.17c0.11,0.04,0.22,0.06,0.34,0.06c0.19,0,0.36-0.07,0.51-0.2
		c0.15-0.13,0.22-0.35,0.22-0.65v-7.41H30v7.37c0,0.35-0.07,0.66-0.22,0.93c-0.15,0.27-0.34,0.49-0.58,0.67
		c-0.24,0.18-0.51,0.32-0.82,0.41c-0.31,0.09-0.62,0.14-0.93,0.14c-0.32,0-0.62-0.04-0.92-0.13c-0.3-0.09-0.57-0.22-0.8-0.4
		c-0.24-0.18-0.43-0.4-0.57-0.67c-0.14-0.27-0.21-0.58-0.21-0.94V2.15c0-0.35,0.07-0.66,0.22-0.93c0.14-0.27,0.34-0.5,0.57-0.67
		c0.24-0.18,0.51-0.31,0.82-0.4C26.86,0.05,27.17,0,27.49,0c0.32,0,0.62,0.04,0.92,0.13c0.3,0.09,0.57,0.22,0.8,0.4
		c0.24,0.18,0.43,0.4,0.57,0.67C29.93,1.47,30,1.79,30,2.15V8.68z"/>
	<path d="M38.93,20.48h-1.6l-1.26-9.3v9.3h-1.69V0.25h1.69v9.27l1.19-9.27h1.67l-1.46,10.13L38.93,20.48z"/>
	<path d="M53.21,0.25h1.49v20.23h-1.47V8.26l-1.15,11.38h-0.66L50.28,8.26v12.22H48.8V0.25h1.49l1.46,12.22L53.21,0.25z"/>
	<path d="M64.14,18.58c0,0.37-0.07,0.69-0.2,0.95c-0.14,0.27-0.32,0.49-0.55,0.67c-0.23,0.18-0.49,0.3-0.78,0.39
		c-0.29,0.08-0.59,0.13-0.9,0.13c-0.32,0-0.65-0.05-0.96-0.14c-0.32-0.09-0.6-0.23-0.84-0.41c-0.25-0.18-0.45-0.4-0.6-0.67
		c-0.15-0.27-0.23-0.57-0.23-0.92V2.15c0-0.33,0.08-0.63,0.23-0.89c0.15-0.26,0.36-0.48,0.61-0.65c0.25-0.18,0.53-0.31,0.85-0.4
		c0.32-0.09,0.64-0.14,0.96-0.14c0.31,0,0.61,0.04,0.9,0.13c0.29,0.08,0.55,0.21,0.77,0.38c0.22,0.17,0.4,0.39,0.54,0.65
		c0.14,0.26,0.2,0.57,0.2,0.92V18.58z M62.45,2.16c0-0.3-0.07-0.51-0.22-0.64c-0.14-0.13-0.31-0.19-0.51-0.19
		c-0.11,0-0.23,0.02-0.34,0.06c-0.11,0.04-0.22,0.1-0.31,0.17c-0.09,0.07-0.17,0.16-0.22,0.26c-0.06,0.1-0.09,0.21-0.09,0.34v16.46
		c0,0.12,0.03,0.24,0.09,0.34c0.06,0.11,0.13,0.19,0.22,0.26c0.09,0.07,0.19,0.13,0.3,0.16c0.11,0.04,0.22,0.06,0.34,0.06
		c0.19,0,0.36-0.06,0.51-0.19c0.15-0.13,0.22-0.34,0.22-0.64V2.16z"/>
	<path d="M72.93,0.25h1.49v20.23h-1.47V8.26L71.8,19.63h-0.66L70,8.26v12.22h-1.47V0.25h1.49l1.46,12.22L72.93,0.25z"/>
	<path d="M82.17,1.51h-1.69V9.1h1.69v1.26h-1.69v8.85h1.69v1.26H78.8V0.25h3.37V1.51z"/>
	<path d="M91.19,20.48h-1.26L87.61,8.73v11.74h-1.47V0.25h1.26l2.33,11.81V0.25h1.46V20.48z"/>
	<path d="M100,0.25v1.26h-1.69v18.96h-1.69V1.51h-1.69V0.25H100z"/>
</g>
</svg>
