<?xml version="1.0" encoding="utf-8"?>
<!-- Generator: Adobe Illustrator 24.2.3, SVG Export Plug-In . SVG Version: 6.00 Build 0)  -->
<svg version="1.1" id="Capa_1" xmlns="http://www.w3.org/2000/svg" xmlns:xlink="http://www.w3.org/1999/xlink" x="0px" y="0px"
	 viewBox="0 0 34.42 20.73" style="enable-background:new 0 0 34.42 20.73;" xml:space="preserve">
<g>
	<path d="M5.18,8.64c0,0.43-0.11,0.76-0.34,1c-0.22,0.23-0.58,0.41-1.08,0.53c0.49,0.1,0.85,0.27,1.08,0.5
		c0.22,0.23,0.34,0.57,0.34,1v6.91c0,0.54-0.1,0.96-0.3,1.25c-0.2,0.29-0.46,0.51-0.78,0.64C3.78,20.59,3.41,20.67,3,20.69
		c-0.41,0.02-0.84,0.03-1.27,0.03H0V0h1.73c0.54,0,1.02,0.01,1.45,0.03s0.79,0.1,1.09,0.24s0.52,0.35,0.68,0.64s0.24,0.71,0.24,1.25
		V8.64z M1.73,9.5h1.3c0.11,0,0.19-0.02,0.25-0.07c0.06-0.05,0.1-0.11,0.13-0.2c0.03-0.08,0.04-0.17,0.05-0.28
		c0-0.1,0.01-0.21,0.01-0.32V2.16c0-0.22-0.03-0.38-0.09-0.5C3.31,1.54,3.21,1.46,3.08,1.4C2.94,1.35,2.76,1.32,2.54,1.31
		C2.32,1.3,2.05,1.3,1.73,1.3V9.5z M3.45,11.66c0-0.11,0-0.21-0.01-0.32c0-0.1-0.02-0.2-0.05-0.28c-0.03-0.08-0.07-0.15-0.13-0.2
		c-0.06-0.05-0.14-0.07-0.25-0.07h-1.3v8.64c0.2,0,0.4,0,0.61-0.01c0.21-0.01,0.39-0.04,0.56-0.09s0.3-0.13,0.4-0.25
		c0.1-0.12,0.16-0.29,0.16-0.51V11.66z"/>
	<path d="M14.19,0h1.52v20.73h-1.51V8.2l-1.17,11.66h-0.67L11.18,8.2v12.52H9.67V0h1.52l1.5,12.52L14.19,0z"/>
	<path d="M25.39,20.73h-1.3L21.72,8.69v12.03h-1.51V0h1.3l2.39,12.1V0h1.5V20.73z"/>
	<path d="M34.42,0v1.3h-1.73v19.43h-1.73V1.3h-1.73V0H34.42z"/>
</g>
</svg>
