<?xml version="1.0" encoding="utf-8"?>
<!-- Generator: Adobe Illustrator 24.2.3, SVG Export Plug-In . SVG Version: 6.00 Build 0)  -->
<svg version="1.1" id="Capa_1" xmlns="http://www.w3.org/2000/svg" xmlns:xlink="http://www.w3.org/1999/xlink" x="0px" y="0px"
	 viewBox="0 0 30 30" style="enable-background:new 0 0 30 30;" xml:space="preserve">
<g>
	<path d="M15,26c-4.1,0-8.1,0-12.2,0C1.2,26,0,24.8,0,23.2c0-5.5,0-10.9,0-16.4C0,5.2,1.2,4,2.8,4C10.9,4,19,4,27.1,4
		C28.8,4,30,5.2,30,6.9c0,5.4,0,10.8,0,16.3c0,1.7-1.2,2.9-2.9,2.9C23.1,26,19,26,15,26z M15,5.5c-1.1,0-2.2,0-3.3,0
		c-2.9,0-5.9,0-8.8,0c-0.4,0-0.7,0.1-1,0.4C1.8,6,1.7,6.1,1.9,6.2C2.4,6.6,3,7.1,3.5,7.5c1.9,1.6,3.7,3.1,5.6,4.7
		c1.9,1.6,3.8,3.1,5.7,4.7c0.1,0.1,0.2,0.1,0.4,0c1.3-1.1,2.7-2.2,4-3.3c1.6-1.3,3.2-2.7,4.9-4c1.3-1.1,2.7-2.2,4.1-3.4
		c0.2-0.1,0.1-0.2,0-0.4c-0.3-0.3-0.6-0.3-1-0.3C23.1,5.5,19,5.5,15,5.5z M15,24.5c4,0,8,0,12,0c0.2,0,0.4,0,0.6-0.1
		c0.1,0,0.1,0,0.2-0.1c0-0.1-0.1-0.1-0.1-0.1c-1.6-1.3-3.2-2.6-4.8-3.9c-1.5-1.3-3.1-2.5-4.6-3.8c-0.1-0.1-0.2-0.1-0.3,0
		c-0.8,0.7-1.6,1.3-2.4,2c-0.4,0.3-0.7,0.3-1.1,0c-0.8-0.7-1.6-1.3-2.4-2c-0.1-0.1-0.2-0.1-0.3,0c-0.2,0.2-0.5,0.4-0.7,0.6
		c-2.2,1.9-4.5,3.7-6.7,5.6c-0.7,0.5-1.3,1.1-2,1.6c-0.1,0.1-0.1,0.2,0,0.2c0.2,0.1,0.5,0.1,0.7,0.1C7,24.5,11,24.5,15,24.5z
		 M28.5,7.8c-0.1,0.1-0.2,0.1-0.2,0.2c-1.4,1.2-2.8,2.3-4.2,3.5c-1.5,1.3-3.1,2.5-4.6,3.8c-0.1,0.1-0.1,0.2,0,0.3
		c0.6,0.5,1.1,0.9,1.7,1.4c2.3,1.9,4.7,3.8,7,5.8c0.1,0.1,0.2,0.2,0.3,0.2c0.1,0,0-0.2,0-0.3c0-4.8,0-9.5,0-14.3
		C28.5,8.1,28.5,8,28.5,7.8z M1.5,7.8c0,0.2,0,0.3,0,0.4c0,4.8,0,9.6,0,14.4c0,0.1-0.1,0.3,0,0.4c0.1,0.1,0.2-0.1,0.3-0.2
		c1.2-1,2.4-2,3.6-3c1.6-1.4,3.3-2.7,4.9-4.1c0.2-0.2,0.2-0.2,0-0.4c-2.4-2-4.8-3.9-7.1-5.9C2.7,8.8,2.1,8.3,1.5,7.8z"/>
</g>
</svg>
