<?xml version="1.0" encoding="utf-8"?>
<!-- Generator: Adobe Illustrator 24.2.3, SVG Export Plug-In . SVG Version: 6.00 Build 0)  -->
<svg version="1.1" id="Capa_1" xmlns="http://www.w3.org/2000/svg" xmlns:xlink="http://www.w3.org/1999/xlink" x="0px" y="0px"
	 viewBox="0 0 100 99.18" style="enable-background:new 0 0 100 99.18;" xml:space="preserve">
<path d="M100,72.62V49.58c0,7.76,0,15.51-0.01,23.27C100,72.77,100,72.7,100,72.62z M99.99,26.32C100,34.07,100,41.83,100,49.58
	V26.55C100,26.47,100,26.4,99.99,26.32z"/>
<path d="M99.99,26.53c-0.03-4.5-1.17-8.73-3.16-12.45c-2.36-4.44-5.94-8.14-10.29-10.64c-2.69-1.58-5.67-2.68-8.84-3.23
	c-1.51-0.27-3.07-0.41-4.66-0.41H26.96c-1.63,0-3.22,0.14-4.76,0.43c-3.14,0.55-6.08,1.65-8.74,3.21c-4.35,2.5-7.93,6.2-10.29,10.64
	C1.16,17.83,0.02,22.1,0,26.64v46.31c0.02,4.53,1.16,8.8,3.16,12.54c2.34,4.41,5.87,8.09,10.17,10.6c2.68,1.59,5.66,2.71,8.84,3.28
	c1.81,0.01,3.62,0.02,5.43,0.02c6.21,0,12.42-0.06,18.63-0.09c3.64-0.02,5.26-1.64,5.28-5.27c0.07-10.22,0.06-20.44,0-30.66
	c-0.02-3.87-1.59-5.35-5.38-5.42c-0.9-0.02-1.81-0.06-2.7-0.06c-0.58,0-1.15,0.02-1.72,0.07C41.43,57.99,41.18,58,40.94,58
	c-2.27,0-2.92-1.25-2.85-3.8c0.23-8.16,0.13-8.17,8.27-8.38c3.74-0.09,5.09-1.43,5.17-5.23c0.06-3.14-0.07-6.3,0.1-9.43
	c0.43-8.31,5.07-13.79,12.89-15.4c1.93-0.39,3.88-0.67,5.86-0.67c0.19,0,0.38,0,0.57,0.01c0.66,0.02,1.27,0.02,1.83,0.02
	c1.47,0,2.6-0.04,3.48-0.04c0.98,0,1.64,0.06,2.08,0.29c0.07,0.04,0.14,0.08,0.2,0.14c0.95,0.77,0.57,2.86,0.63,8.41
	c0,0.1-0.01,0.2-0.01,0.3c0.01,0.86-0.21,1.46-0.64,1.86c-0.05,0.05-0.11,0.1-0.17,0.14c-0.42,0.29-0.98,0.42-1.68,0.42h-0.1
	c-0.89-0.01-1.78-0.03-2.67-0.03c-0.98,0-1.96,0.02-2.93,0.06c-3.96,0.16-6.61,2.46-7.36,6.35c-0.54,2.83-0.42,5.69-0.19,8.53
	c0.23,2.72,1.79,4.27,4.66,4.27h1.73c1.39,0,2.78,0,4.17,0.01c4.6,0.01,4.67,0.02,3.97,4.57c-0.47,3.07-0.62,4.9-0.94,5.99
	c-0.04,0.13-0.08,0.26-0.13,0.37c-0.11,0.26-0.23,0.46-0.39,0.62c-0.08,0.08-0.16,0.15-0.26,0.21c-0.09,0.06-0.2,0.11-0.31,0.16
	c-0.12,0.04-0.24,0.07-0.38,0.1c-0.4,0.09-0.92,0.11-1.58,0.11c-0.84,0-1.9-0.04-3.28-0.04c-0.41,0-0.85,0-1.32,0.01
	c-4.43,0.09-5.97,1.4-6.01,5.76c-0.09,9.93-0.08,19.85-0.01,29.78c0.03,4.31,1.6,5.79,5.98,5.84c2.83,0.03,5.66,0.06,8.49,0.06
	c3.17-0.56,6.14-1.68,8.82-3.26c4.31-2.51,7.85-6.18,10.2-10.59c1.99-3.72,3.13-7.96,3.16-12.46C100,65.3,100,57.55,100,49.79
	C100,42.04,100,34.28,99.99,26.53z M96,72.73l-0.01,0.07v0.23c-0.02,3.75-0.93,7.32-2.69,10.61c-2,3.75-5,6.87-8.7,9.02
	c-2.23,1.32-4.63,2.22-7.15,2.71c-2.7,0-5.44-0.03-8.08-0.06c-1.12-0.01-1.64-0.14-1.85-0.21c-0.06-0.2-0.17-0.67-0.18-1.66
	c-0.08-10.83-0.07-20.55,0.01-29.71c0.01-0.9,0.1-1.37,0.16-1.59c0.24-0.07,0.8-0.19,1.92-0.21c0.45-0.01,0.86-0.01,1.25-0.01
	c0.75,0,1.4,0.01,1.97,0.02c0.49,0.01,0.92,0.02,1.31,0.02c6.44,0,6.98-3.96,7.54-8.14c0.11-0.79,0.24-1.72,0.4-2.81
	c0.45-2.91,0.8-5.2-0.9-7.19c-1.69-1.98-4.04-1.98-7.03-1.99c-1.39-0.01-2.77-0.01-4.16-0.01h-1.73c-0.3,0-0.48-0.03-0.57-0.06
	c-0.03-0.09-0.08-0.25-0.1-0.53c-0.23-2.85-0.3-5.21,0.13-7.45c0.4-2.07,1.5-3.03,3.6-3.11c0.83-0.04,1.73-0.06,2.76-0.06
	c0.87,0,1.74,0.02,2.6,0.03h0.17c2.46,0,3.94-0.98,4.76-1.81c0.8-0.81,1.75-2.26,1.73-4.57c0.01-0.11,0.01-0.23,0.01-0.38
	c-0.02-1.46,0-2.65,0.01-3.7c0.05-3.38,0.07-5.61-1.69-7.4c-1.69-1.7-3.91-1.7-5.23-1.7c-0.41,0-0.87,0.01-1.38,0.02
	c-0.61,0.01-1.3,0.02-2.1,0.02c-0.53,0-1.1,0-1.72-0.02c-0.23,0-0.46-0.01-0.68-0.01c-2.03,0-4.14,0.24-6.67,0.75
	c-9.69,2-15.55,8.96-16.07,19.1c-0.11,2.04-0.11,4.06-0.1,6.01c0.01,1.23,0.01,2.39-0.01,3.56c-0.01,0.61-0.07,0.99-0.11,1.2
	c-0.21,0.05-0.57,0.1-1.16,0.11c-3.65,0.09-6.22,0.37-8.01,1.16c-1.38,0.59-2.3,1.48-2.92,2.82c-0.83,1.77-1.13,4.33-1.23,7.99
	l-0.01,0.3c-0.05,1.69,0.1,4.17,1.89,6.01c1.23,1.26,2.89,1.9,4.96,1.9c0.37,0,0.76-0.02,1.15-0.06c0.38-0.03,0.82-0.05,1.34-0.05
	s1.05,0.01,1.57,0.03c0.35,0.01,0.7,0.02,1.06,0.03c0.73,0.01,1.13,0.1,1.32,0.15c0.05,0.19,0.13,0.58,0.13,1.29
	c0.07,11.1,0.07,21.11,0,30.62c0,0.65-0.08,1-0.13,1.16c-0.16,0.05-0.51,0.13-1.17,0.13c-1.89,0.01-3.77,0.02-5.66,0.03
	c-4.25,0.03-8.64,0.06-12.95,0.06c-1.68,0-3.37-0.01-5.05-0.02c-2.55-0.49-4.97-1.41-7.2-2.73c-3.67-2.14-6.66-5.26-8.66-9.04
	C4.95,80.35,4.02,76.66,4,72.95V26.66c0.02-3.79,0.92-7.38,2.7-10.7c2.01-3.79,5.04-6.92,8.78-9.07c2.3-1.35,4.79-2.26,7.41-2.72
	h0.03l0.02-0.01c1.27-0.24,2.62-0.36,4.02-0.36h46.08c1.34,0,2.67,0.12,3.98,0.35c2.67,0.46,5.19,1.39,7.53,2.76
	c3.71,2.13,6.74,5.26,8.75,9.06c1.76,3.28,2.67,6.85,2.69,10.59v0.23L96,26.86V72.73z"/>
</svg>
