<?xml version="1.0" encoding="utf-8"?>
<!-- Generator: Adobe Illustrator 24.2.3, SVG Export Plug-In . SVG Version: 6.00 Build 0)  -->
<svg version="1.1" id="Capa_1" xmlns="http://www.w3.org/2000/svg" xmlns:xlink="http://www.w3.org/1999/xlink" x="0px" y="0px"
	 viewBox="0 0 32 32" style="enable-background:new 0 0 32 32;" xml:space="preserve">
<style type="text/css">
	.st0{fill:#FFFFFF;}
</style>
<circle cx="16" cy="16" r="16"/>
<path class="st0" d="M24.79,8c-0.11,0-0.21,0.01-0.32,0.02l-9.98,0.57c-1.25,0.06-2.5,0.06-3.74,0.06l-0.68,0.17
	c-0.28,0.11-0.4,0.4-0.4,0.62c0.06,0.28,0.17,0.45,0.45,0.51l0.57,0.17c0.18,0.04,0.31,0.11,0.44,0.11c0.08,0,0.16-0.03,0.24-0.11
	c0.02-0.02,0.04-0.03,0.07-0.03c0.06,0,0.13,0.03,0.21,0.03c0.92,0.02,1.83,0.04,2.75,0.04c1.3,0,2.61-0.03,3.94-0.09
	c1.76-0.11,3.52-0.17,5.33-0.17h0.57l-0.11,0.11c-0.28,0.17-0.51,0.45-0.74,0.57c-2.04,1.3-4.03,2.67-6.01,3.91
	c-2.72,1.7-5.44,3.29-8.11,4.88l-5.22,3.06C4,22.48,3.94,22.48,3.94,22.54c-0.4,0.23-0.45,0.68-0.06,1.02
	c0.11,0.11,0.4,0.23,0.57,0.28C4.85,23.96,5.25,24,5.64,24c0.4,0,0.79-0.04,1.19-0.1c2.04-0.28,4.14-0.62,6.18-0.96
	c3.06-0.51,6.07-1.02,9.07-1.59c1.87-0.34,3.74-0.79,5.61-1.19c0.17,0,0.28-0.06,0.45-0.11c0.17-0.11,0.23-0.28,0.23-0.51
	c-0.06-0.17-0.17-0.34-0.45-0.4c-0.06,0-0.23,0-0.34,0.06c-0.51,0.11-0.96,0.23-1.53,0.28c-2.55,0.45-5.16,0.85-7.71,1.25
	c-3.91,0.62-7.94,1.19-11.91,1.53H5.64c0.23-0.17,0.34-0.28,0.51-0.34c1.53-0.85,3.06-1.81,4.65-2.67c3.29-1.76,6.58-3.52,9.87-5.22
	l3.4-1.99c0.57-0.34,1.13-0.74,1.59-1.13c0.34-0.23,0.57-0.45,0.74-0.74c0.62-0.91,0.28-1.81-0.74-2.04C25.37,8.05,25.08,8,24.79,8"
	/>
</svg>
