<?xml version="1.0" encoding="utf-8"?>
<!-- Generator: Adobe Illustrator 24.2.3, SVG Export Plug-In . SVG Version: 6.00 Build 0)  -->
<svg version="1.1" id="Capa_1" xmlns="http://www.w3.org/2000/svg" xmlns:xlink="http://www.w3.org/1999/xlink" x="0px" y="0px"
	 viewBox="0 0 100 99.18" style="enable-background:new 0 0 100 99.18;" xml:space="preserve">
<g>
	<path d="M50.07,26.75c-12.66,0-22.92,10.26-22.92,22.92s10.26,22.92,22.92,22.92s22.92-10.26,22.92-22.92
		C72.97,37.01,62.72,26.76,50.07,26.75z M50.07,68.41c-10.36,0-18.75-8.39-18.75-18.75s8.39-18.75,18.75-18.75
		s18.75,8.39,18.75,18.75C68.81,60.01,60.42,68.4,50.07,68.41z M72.92-0.41H27.08C12.13-0.39,0.02,11.72,0,26.67v45.83
		c0.02,14.95,12.13,27.07,27.08,27.08h45.83C87.87,99.57,99.98,87.46,100,72.51V26.67C99.98,11.72,87.87-0.39,72.92-0.41z
		 M95.83,72.51c-0.01,12.65-10.27,22.9-22.92,22.92H27.08C14.43,95.41,4.18,85.16,4.17,72.51V26.67
		C4.18,14.02,14.43,3.77,27.08,3.76h45.83c12.65,0.01,22.9,10.27,22.92,22.92V72.51z M81.32,22.58c0,2.3-1.87,4.17-4.17,4.17
		s-4.17-1.87-4.17-4.17s1.87-4.17,4.17-4.17C79.45,18.42,81.32,20.28,81.32,22.58z"/>
</g>
</svg>
