<?xml version="1.0" encoding="utf-8"?>
<!-- Generator: Adobe Illustrator 24.2.3, SVG Export Plug-In . SVG Version: 6.00 Build 0)  -->
<svg version="1.1" id="Capa_1" xmlns="http://www.w3.org/2000/svg" xmlns:xlink="http://www.w3.org/1999/xlink" x="0px" y="0px"
	 viewBox="0 0 30 30" style="enable-background:new 0 0 30 30;" xml:space="preserve">
<path d="M29.9,28.3l-7.4-7.4c1.8-2.2,2.9-5,2.9-8.1c0-7-5.7-12.8-12.8-12.8C5.6,0-0.1,5.8-0.1,12.8c0,7,5.7,12.8,12.8,12.8
	c3.3,0,6.3-1.3,8.5-3.3l7.4,7.4L29.9,28.3z M12.6,23.7c-6,0-10.9-4.9-10.9-10.9c0-6,4.9-10.9,10.9-10.9c6,0,10.9,4.9,10.9,10.9
	C23.5,18.8,18.6,23.7,12.6,23.7z"/>
</svg>
