<?xml version="1.0" encoding="utf-8"?>
<!-- Generator: Adobe Illustrator 24.2.3, SVG Export Plug-In . SVG Version: 6.00 Build 0)  -->
<svg version="1.1" id="Capa_1" xmlns="http://www.w3.org/2000/svg" xmlns:xlink="http://www.w3.org/1999/xlink" x="0px" y="0px"
	 viewBox="0 0 30 30" style="enable-background:new 0 0 30 30;" xml:space="preserve">
<g>
	<g>
		<g>
			<path d="M1.7,30C1.7,30,1.7,30,1.7,30c-0.6,0-1-0.5-0.9-1C1.3,22.4,7.5,17.2,15,17.2c7.5,0,13.7,5.2,14.2,11.8c0,0.5-0.4,1-0.9,1
				c-0.5,0-1-0.4-1-0.9c-0.4-5.6-5.8-10-12.3-10c-6.5,0-11.9,4.4-12.3,10.1C2.6,29.6,2.2,30,1.7,30z"/>
		</g>
		<g>
			<path d="M15,15.9c-4.4,0-8-3.6-8-8s3.6-8,8-8c4.4,0,8,3.6,8,8S19.4,15.9,15,15.9z M15,1.9c-3.4,0-6.1,2.7-6.1,6.1
				s2.7,6.1,6.1,6.1s6.1-2.7,6.1-6.1S18.4,1.9,15,1.9z"/>
		</g>
	</g>
</g>
</svg>
