<?xml version="1.0" encoding="utf-8"?>
<!-- Generator: Adobe Illustrator 24.2.3, SVG Export Plug-In . SVG Version: 6.00 Build 0)  -->
<svg version="1.1" id="Capa_1" xmlns="http://www.w3.org/2000/svg" xmlns:xlink="http://www.w3.org/1999/xlink" x="0px" y="0px"
	 viewBox="0 0 30 30" style="enable-background:new 0 0 30 30;" xml:space="preserve">
<style type="text/css">
	.st0{fill:#020203;}
</style>
<g>
	<path class="st0" d="M15,30c-2.5,0-5-0.7-7.3-1.9l-4.4,1.3c-0.2,0.1-0.4,0.1-0.6,0.1c-0.2,0-0.4,0-0.6-0.1c-0.5-0.2-1-0.5-1.3-1
		c-0.3-0.5-0.3-1.1-0.2-1.6l1.3-4.4C0.7,20.1,0,17.5,0,15C0,6.7,6.7,0,15,0c2.6,0,5.2,0.7,7.4,2c7.2,4.1,9.7,13.3,5.6,20.5
		C25.4,27.1,20.4,30,15,30z M7.8,26.1c0.2,0,0.3,0,0.5,0.1c2,1.2,4.3,1.8,6.7,1.8c2.3,0,4.7-0.6,6.7-1.8c3-1.8,5.1-4.6,6-8
		c0.9-3.4,0.4-6.9-1.4-9.9C23.9,4.4,19.6,1.9,15,1.9c-2.3,0-4.6,0.6-6.6,1.8C2.1,7.4,0.1,15.5,3.8,21.7c0.1,0.2,0.2,0.5,0.1,0.8
		l-1.4,4.8c0,0,0,0.1,0,0.1c0,0.1,0.1,0.1,0.2,0.1l4.9-1.4C7.7,26.1,7.8,26.1,7.8,26.1z M18.5,24.2c-7,0-12.7-5.7-12.7-12.7
		c0-2.8,2.3-5,5.1-5c0.7,0,1.4,0.4,1.7,1l1.7,3c0.4,0.7,0.4,1.5,0,2.2l-1.1,1.8c0.6,1,1.4,1.8,2.4,2.4l1.8-1.1
		c0.3-0.2,0.7-0.3,1.1-0.3c0.4,0,0.7,0.1,1.1,0.3l3,1.7c0.6,0.4,1,1,1,1.7C23.6,21.9,21.3,24.1,18.5,24.2L18.5,24.2z M10.9,8.4
		c-1.7,0-3.1,1.4-3.1,3.1c0,5.9,4.8,10.7,10.7,10.7c1.7,0,3.1-1.4,3.1-3.1l-3-1.7c0,0-0.1,0-0.1,0c0,0-0.1,0-0.1,0l-2.3,1.4
		c-0.2,0.1-0.3,0.1-0.5,0.1c-0.1,0-0.3,0-0.4-0.1c-1.8-0.8-3.2-2.2-4-4c-0.1-0.3-0.1-0.6,0.1-0.9l1.4-2.3c0-0.1,0-0.1,0-0.2
		L10.9,8.4L10.9,8.4z"/>
</g>
</svg>
