<?xml version="1.0" encoding="utf-8"?>
<!-- Generator: Adobe Illustrator 24.2.3, SVG Export Plug-In . SVG Version: 6.00 Build 0)  -->
<svg version="1.1" id="Capa_1" xmlns="http://www.w3.org/2000/svg" xmlns:xlink="http://www.w3.org/1999/xlink" x="0px" y="0px"
	 viewBox="0 0 94.68 18.28" style="enable-background:new 0 0 94.68 18.28;" xml:space="preserve">
<g>
	<path d="M14.63,3.81c-0.07,0-0.15,0-0.22,0.02L7.51,4.22C6.65,4.26,5.79,4.26,4.93,4.26L4.46,4.37c-0.2,0.08-0.27,0.27-0.27,0.43
		C4.22,5,4.3,5.12,4.5,5.16l0.39,0.12C5.01,5.3,5.1,5.36,5.19,5.36c0.05,0,0.11-0.02,0.17-0.08c0.01-0.01,0.03-0.02,0.05-0.02
		c0.04,0,0.09,0.02,0.15,0.02C6.19,5.29,6.82,5.3,7.46,5.3c0.9,0,1.8-0.02,2.72-0.06c1.21-0.08,2.43-0.12,3.68-0.12h0.39L14.17,5.2
		c-0.2,0.12-0.35,0.31-0.51,0.39c-1.41,0.9-2.78,1.84-4.15,2.7c-1.88,1.18-3.76,2.27-5.6,3.37l-3.6,2.12
		c-0.04,0.04-0.08,0.04-0.08,0.08c-0.27,0.16-0.31,0.47-0.04,0.71c0.08,0.08,0.27,0.16,0.39,0.2c0.27,0.08,0.55,0.11,0.82,0.11
		c0.27,0,0.55-0.03,0.82-0.07c1.41-0.2,2.86-0.43,4.27-0.67c2.12-0.35,4.19-0.71,6.27-1.1c1.29-0.23,2.59-0.55,3.88-0.82
		c0.12,0,0.2-0.04,0.31-0.08c0.12-0.08,0.16-0.2,0.16-0.35c-0.04-0.12-0.12-0.24-0.31-0.27c-0.04,0-0.16,0-0.24,0.04
		c-0.35,0.08-0.67,0.16-1.06,0.2c-1.76,0.31-3.57,0.59-5.33,0.86c-2.7,0.43-5.48,0.82-8.23,1.06H1.4c0.16-0.12,0.24-0.2,0.35-0.24
		c1.06-0.59,2.12-1.25,3.21-1.84c2.27-1.21,4.54-2.43,6.82-3.6l2.35-1.37c0.39-0.24,0.78-0.51,1.1-0.78
		c0.23-0.16,0.39-0.31,0.51-0.51c0.43-0.63,0.2-1.25-0.51-1.41C15.03,3.85,14.83,3.81,14.63,3.81"/>
	<path d="M64.83,5.82c-0.27,0.08-0.51,0.12-0.71,0.2l-1.61,0.59c-0.12,0.04-0.24,0.12-0.2,0.27c0.03,0.09,0.1,0.13,0.2,0.13
		c0.03,0,0.07,0,0.11-0.01c0.08-0.04,0.16-0.08,0.27-0.08c0.63-0.27,1.25-0.51,1.88-0.78c0,0,0.08,0,0.08-0.04
		c0.04-0.04,0.12-0.12,0.12-0.16L64.83,5.82"/>
	<path d="M36.73,17.84c-0.14,0-0.26-0.03-0.38-0.15c-0.16-0.24-0.04-0.47,0.08-0.67c0.2-0.27,0.39-0.59,0.63-0.82
		c0.74-0.71,1.57-1.33,2.43-1.88c0.47-0.31,0.9-0.59,1.37-0.86l0.04,0.04c-0.51,1.33-1.18,2.51-2.27,3.45
		c-0.47,0.43-0.98,0.74-1.61,0.86C36.92,17.83,36.82,17.84,36.73,17.84 M44.34,14.06c-0.05,0-0.1,0-0.16-0.01
		c0.04-0.16,0.04-0.24,0.08-0.35l0.12-0.27c1.14-1.96,2.66-3.49,4.74-4.47c0.27-0.16,0.63-0.2,0.94-0.27
		c0.12-0.04,0.24-0.04,0.43-0.04c-0.08,0.16-0.12,0.24-0.2,0.31c-1.21,1.41-2.43,2.78-3.92,3.92c-0.47,0.39-0.98,0.71-1.49,1.02
		C44.72,13.99,44.56,14.06,44.34,14.06 M39.52,4.65c0.04-0.12,0.04-0.16,0.08-0.24c0.43-0.86,0.82-1.76,1.29-2.62
		c0.2-0.39,0.51-0.78,0.82-1.14c0.08-0.12,0.2-0.16,0.27-0.24c0.04,0,0.08,0.04,0.12,0.04c-0.12,0.31-0.24,0.63-0.39,0.9
		c-0.55,1.14-1.29,2.19-2.08,3.21C39.64,4.57,39.6,4.57,39.52,4.65 M42,0c-0.13,0-0.26,0.07-0.41,0.14c-0.04,0-0.08,0.04-0.16,0.08
		c-0.27,0.27-0.63,0.55-0.9,0.86c-0.27,0.35-0.55,0.74-0.78,1.14c-0.86,1.41-1.57,2.9-2.15,4.43L37.09,7.9l-0.27,0.78l-0.25,0.83
		c-2.84,1.9-5.9,3.66-8.57,4.38c-0.51,0.13-1.02,0.2-1.53,0.2c-0.44,0-0.88-0.05-1.33-0.16c-1.1-0.31-1.57-1.02-1.45-2.15
		c0.04-0.04,0.04-0.12,0.04-0.16c0.16-0.86,0.51-1.61,0.86-2.39c0.08-0.2,0.2-0.39,0.27-0.59c0.08-0.2,0-0.35-0.12-0.43
		c-0.05-0.04-0.1-0.06-0.16-0.06c-0.1,0-0.2,0.07-0.28,0.17c-1.02,1.1-2.23,2.04-3.45,2.98c-0.35,0.27-1.18,0.82-1.33,0.86
		c-0.12-0.12,0.24-0.63,0.47-0.98c0.59-0.82,1.25-1.61,2.04-2.27c0.63-0.59,1.29-1.1,2.08-1.41c0.27-0.12,0.55-0.2,0.82-0.24
		c0.07-0.01,0.13-0.02,0.19-0.02c0.28,0,0.36,0.16,0.4,0.49c0,0.12,0,0.24,0.12,0.24c0.08,0,0.16-0.12,0.2-0.16
		c0.2-0.47-0.04-0.9-0.55-1.06c-0.14-0.05-0.28-0.08-0.42-0.08c-0.27,0-0.55,0.08-0.84,0.15c-0.59,0.2-1.18,0.55-1.68,0.94
		c-1.25,0.9-2.27,2.04-3.09,3.37c-0.16,0.27-0.27,0.59-0.43,0.9c-0.04,0.12-0.04,0.24-0.04,0.35c0.03,0.25,0.19,0.43,0.39,0.43
		c0.05,0,0.1-0.01,0.16-0.03c0.2-0.04,0.35-0.12,0.51-0.2c0.31-0.23,0.67-0.43,0.94-0.67l2.35-1.92l0.31-0.24
		c0,0.16-0.04,0.27-0.08,0.39c-0.27,0.67-0.43,1.33-0.43,2.04c0.04,1.18,0.71,2,1.84,2.27c0.43,0.1,0.86,0.15,1.28,0.15
		c0.37,0,0.74-0.04,1.11-0.11c3.29-0.71,5.9-2.34,9.32-4.77l-0.51,1.71c-0.04,0.16-0.04,0.35,0,0.51c0.05,0.24,0.23,0.37,0.44,0.37
		c0.1,0,0.21-0.03,0.31-0.09c0.12-0.08,0.23-0.2,0.35-0.31c0.43-0.43,0.86-0.9,1.33-1.33c0.43-0.35,0.86-0.71,1.29-1.02
		c0.24-0.16,0.51-0.27,0.78-0.31c0.09-0.03,0.17-0.04,0.24-0.04c0.27,0,0.46,0.16,0.58,0.47c0.08,0.24,0.16,0.47,0.16,0.71
		c0.08,0.78-0.08,1.57-0.31,2.31c-0.08,0.27-0.2,0.43-0.47,0.59c-0.94,0.63-1.92,1.25-2.86,1.92c-0.51,0.35-0.94,0.78-1.37,1.21
		c-0.2,0.2-0.35,0.47-0.43,0.71c-0.23,0.63,0.08,1.14,0.74,1.14c0.31,0,0.63-0.08,0.94-0.16c0.74-0.27,1.33-0.74,1.88-1.25
		c1.1-1.1,1.84-2.39,2.31-3.84c0.08-0.2,0.16-0.35,0.35-0.47l2.84-1.86c-0.56,0.72-1.01,1.54-1.35,2.45
		c-0.08,0.24-0.12,0.55-0.12,0.78c0,0.36,0.21,0.58,0.53,0.58c0.07,0,0.14-0.01,0.21-0.03c0.23-0.08,0.51-0.16,0.74-0.31
		c0.55-0.39,1.1-0.74,1.61-1.18c1.1-0.9,2.04-1.96,3.02-2.98l0.23-0.24c0.04,0.12,0,0.2-0.04,0.31c-0.16,0.51-0.35,1.02-0.51,1.57
		c-0.31,0.98-0.51,2-0.51,3.02c0,0.39,0.04,0.78,0.2,1.14c0.25,0.49,0.68,0.8,1.22,0.8c0.06,0,0.12,0,0.19-0.01
		c0.31-0.04,0.67-0.12,0.94-0.24c0.63-0.27,1.25-0.59,1.84-0.94c1.65-0.98,3.25-2,4.9-3.02c0.07-0.07,2.88-2.01,3.75-2.58
		c-0.28,0.74-0.51,1.49-0.62,2.27c-0.08,0.51-0.12,1.02,0,1.53c0.12,0.51,0.47,0.78,0.98,0.78c0.27-0.04,0.59-0.08,0.86-0.2
		c0.59-0.27,1.14-0.55,1.65-0.86c1.37-0.82,2.74-1.68,4.07-2.55c0.64-0.42,1.26-0.83,1.86-1.28c-0.05,0.32-0.09,0.64-0.13,0.96
		c-0.2,1.18-0.31,2.31-0.43,3.49c-0.04,0.67-0.08,1.37-0.08,2.12c0,0.16,0.04,0.31,0.08,0.47c0.09,0.16,0.24,0.26,0.4,0.26
		c0.11,0,0.21-0.04,0.31-0.14c0.16-0.08,0.24-0.24,0.31-0.39c0.27-0.43,0.51-0.9,0.78-1.33c0.78-1.41,1.53-2.86,2.31-4.31
		c0.71-1.25,1.37-2.47,2.12-3.68c0.12-0.27,0.16-0.51,0.27-0.78c0.04-0.04,0.12-0.12-0.08-0.16c-0.04,0.04-0.04,0.12-0.08,0.16
		c-0.23,0.43-0.43,0.86-0.67,1.25c-0.43,0.82-0.9,1.61-1.37,2.39l-2.59,4.54c-0.23,0.43-0.55,0.82-0.82,1.25c0,0-0.04,0-0.08-0.04
		c0.04-0.12,0.04-0.24,0.08-0.27c0.12-1.25,0.39-2.43,0.55-3.64c0.35-2.15,0.63-4.31,1.1-6.46c0.04-0.2,0.08-0.43,0.08-0.63
		c0-0.27-0.2-0.43-0.31-0.47c-0.04-0.01-0.07-0.01-0.1-0.01c-0.21,0-0.34,0.11-0.41,0.28c-0.12,0.2-0.16,0.35-0.23,0.51
		c-0.43,1.43-0.73,2.88-0.96,4.34c-0.23,0.18-0.47,0.36-0.73,0.52c-1.72,1.1-3.45,2.15-5.21,3.21c-0.51,0.31-1.06,0.51-1.61,0.74
		c-0.24,0.08-0.51,0.12-0.74,0.16c-0.35,0-0.51-0.12-0.51-0.51c0.04-0.43,0.04-0.9,0.16-1.33c0.23-1.18,0.67-2.31,1.06-3.41
		c0.08-0.16,0.12-0.27,0.16-0.43c0.04-0.16,0.08-0.27-0.08-0.35C63.26,7.8,63.23,7.8,63.2,7.8c-0.1,0-0.16,0.08-0.25,0.14
		c-0.47,0.59-0.47,0.63-0.9,1.65c-0.01,0.03-0.02,0.05-0.03,0.08h-0.09c-0.39,0.08-3.33,2.19-3.53,2.31l-4.94,2.98
		c-0.67,0.39-1.41,0.67-2.12,0.98c-0.27,0.12-0.59,0.12-0.9,0.16c-0.43,0-0.71-0.2-0.78-0.67c-0.08-0.31-0.08-0.67-0.04-0.98
		c0.08-0.71,0.27-1.41,0.51-2.08c0.78-2.04,1.8-4,2.86-5.95c0.08-0.16,0.16-0.27,0.27-0.39c0.63-0.74,1.25-1.49,1.84-2.23
		c0.51-0.63,0.98-1.29,1.45-1.96c0.12-0.16,0.23-0.31,0.27-0.51c0.1-0.27-0.06-0.49-0.31-0.49c-0.04,0-0.08,0-0.12,0.02
		c-0.16,0.04-0.31,0.12-0.43,0.2c-0.35,0.24-0.71,0.51-1.02,0.78c-0.82,0.78-1.53,1.68-2.15,2.66c-0.71,1.06-1.29,2.15-1.84,3.29
		l-0.2,0.35c-0.37-0.21-0.63-0.31-0.95-0.31c-0.16,0-0.33,0.03-0.54,0.08c-0.39,0.08-0.78,0.2-1.14,0.35
		c-1.12,0.54-2.05,1.27-2.8,2.16l-0.41,0.27c-0.24,0.12-0.47,0.27-0.71,0.43c-0.2,0.16-0.43,0.27-0.67,0.43l-0.71,0.47
		c-0.24,0.12-0.43,0.31-0.74,0.39c0.08-0.43,0.12-0.82,0.16-1.21c0.04-0.63,0-1.25-0.35-1.84c-0.26-0.46-0.66-0.7-1.14-0.7
		c-0.1,0-0.2,0.01-0.31,0.03c-0.43,0.08-0.78,0.27-1.14,0.51l-1.92,1.57c-0.12,0.08-0.2,0.2-0.31,0.27c0-0.12,0-0.2,0.04-0.27
		c0.63-1.61,1.21-3.25,1.84-4.86c0.12-0.24,0.27-0.47,0.43-0.71c0.74-1.1,1.53-2.15,2.23-3.25c0.27-0.39,0.47-0.82,0.67-1.25
		c0.08-0.2,0.16-0.43-0.04-0.59C42.17,0.03,42.08,0,42,0"/>
	<path d="M82.43,6.69c-0.27,0-0.55,0.08-0.84,0.15c-0.59,0.2-1.18,0.55-1.68,0.94c-1.25,0.9-2.27,2.04-3.09,3.37
		c-0.16,0.27-0.27,0.59-0.43,0.9c-0.04,0.12-0.04,0.24-0.04,0.35c0.03,0.25,0.19,0.43,0.39,0.43c0.05,0,0.1-0.01,0.16-0.03
		c0.2-0.04,0.35-0.12,0.51-0.2c0.31-0.23,0.67-0.43,0.94-0.67l2.35-1.92L81,9.78c0,0.16-0.04,0.27-0.08,0.39
		c-0.27,0.67-0.43,1.33-0.43,2.04c0.04,1.18,0.71,2,1.84,2.27c0.43,0.1,0.86,0.15,1.28,0.15c0.37,0,0.74-0.04,1.11-0.11
		c3.45-0.74,6.15-2.51,9.83-5.13c0.04,0,0.08-0.08,0.12-0.12c-0.04-0.01-0.07-0.02-0.09-0.02c-0.05,0-0.08,0.02-0.1,0.02
		c-2.94,2-6.15,3.88-8.93,4.62c-0.51,0.13-1.02,0.2-1.53,0.2c-0.44,0-0.88-0.05-1.33-0.16c-1.1-0.31-1.57-1.02-1.45-2.15
		c0.04-0.04,0.04-0.12,0.04-0.16c0.16-0.86,0.51-1.61,0.86-2.39c0.08-0.2,0.2-0.39,0.27-0.59c0.08-0.2,0-0.35-0.12-0.43
		c-0.05-0.04-0.1-0.06-0.16-0.06c-0.1,0-0.2,0.07-0.28,0.17c-1.02,1.1-2.23,2.04-3.45,2.98c-0.35,0.27-1.18,0.82-1.33,0.86
		c-0.12-0.12,0.24-0.63,0.47-0.98c0.59-0.82,1.25-1.61,2.04-2.27c0.63-0.59,1.29-1.1,2.08-1.41c0.27-0.12,0.55-0.2,0.82-0.24
		c0.07-0.01,0.13-0.02,0.19-0.02c0.28,0,0.36,0.16,0.4,0.49c0,0.12,0,0.24,0.12,0.24c0.08,0,0.16-0.12,0.2-0.16
		c0.2-0.47-0.04-0.9-0.55-1.06C82.71,6.71,82.57,6.69,82.43,6.69"/>
</g>
</svg>
